<?xml version="1.0" encoding="utf-8"?>
<!-- Generator: Adobe Illustrator 22.0.1, SVG Export Plug-In . SVG Version: 6.00 Build 0)  -->
<svg version="1.1" id="Layer_1" xmlns="http://www.w3.org/2000/svg" xmlns:xlink="http://www.w3.org/1999/xlink" x="0px" y="0px"
	 viewBox="0 0 274 76" style="enable-background:new 0 0 274 76;" xml:space="preserve">
<style type="text/css">
	.st0{fill:url(#SVGID_1_);}
	.st1{fill:url(#SVGID_2_);}
	.st2{fill:url(#SVGID_3_);}
	.st3{fill:url(#SVGID_4_);}
	.st4{fill:url(#SVGID_5_);}
	.st5{fill:url(#SVGID_6_);}
	.st6{fill:url(#SVGID_7_);}
	.st7{fill:#FFFFFF;}
</style>
<g>
	<g>
		<g>
			<g>
				
					<linearGradient id="SVGID_1_" gradientUnits="userSpaceOnUse" x1="31.8021" y1="81.256" x2="106.4172" y2="81.256" gradientTransform="matrix(0.866 0.5 -0.5 0.866 13.9008 -66.9247)">
					<stop  offset="0" style="stop-color:#00A1E4"/>
					<stop  offset="0.5589" style="stop-color:#00AE66"/>
					<stop  offset="0.999" style="stop-color:#B0D235"/>
				</linearGradient>
				<path class="st0" d="M66.2,53.7l0-14.3l0,0l0,0l0-17.2c0-2-1.1-3.9-2.8-4.9L33.1,0l-5,2.9L17.8,8.8l-15,8.6
					c-1.7,1-2.8,2.9-2.8,4.9l0,31.5c0,2,1.1,3.9,2.8,4.9L33.1,76l5-2.9l10.3-5.9l15-8.6C65.2,57.6,66.2,55.8,66.2,53.7z M61.2,24.8
					l0,8.9l-7.7-4.4L61.2,24.8z M58.7,38L33.1,52.7l-10.3-5.9l12.8-7.3l12.8-7.3L58.7,38z M33.1,5.8l25.6,14.7l-10.3,5.9L22.9,11.7
					L33.1,5.8z M5,21.9l12.8-7.3l25.6,14.7L17.8,43.9L5,36.6L5,21.9z M5,51.2l0-8.9l7.7,4.4L5,51.2z M7.6,55.6l10.3-5.9l10.3,5.9
					l0,0l-10.3,5.9L7.6,55.6z M33.1,70.2l-10.3-5.9l10.3-5.9l0,0l0,0l10.3,5.9L33.1,70.2z M48.4,61.4l-10.3-5.9l23-13.2l0,11.8
					L48.4,61.4z"/>
				<linearGradient id="SVGID_2_" gradientUnits="userSpaceOnUse" x1="54.3831" y1="29.8048" x2="48.5486" y2="33.2082">
					<stop  offset="0" style="stop-color:#39A04D"/>
					<stop  offset="0.999" style="stop-color:#289C50"/>
				</linearGradient>
				<polygon class="st1" points="48.4,32.1 53.5,29.2 55.4,30.4 50.4,33.2 				"/>
				<linearGradient id="SVGID_3_" gradientUnits="userSpaceOnUse" x1="17.8223" y1="48.7882" x2="24.8369" y2="48.7882">
					<stop  offset="0" style="stop-color:#009572"/>
					<stop  offset="0.999" style="stop-color:#009578"/>
				</linearGradient>
				<polygon class="st2" points="19.8,50.8 24.8,47.9 22.9,46.8 17.8,49.7 				"/>
				<linearGradient id="SVGID_4_" gradientUnits="userSpaceOnUse" x1="26.6677" y1="55.8769" x2="33.0857" y2="59.4748">
					<stop  offset="3.205128e-04" style="stop-color:#009858"/>
					<stop  offset="0.999" style="stop-color:#009A53"/>
				</linearGradient>
				<polygon class="st3" points="26.2,56.7 31.2,59.5 33.1,58.4 28.1,55.6 				"/>
				<linearGradient id="SVGID_5_" gradientUnits="userSpaceOnUse" x1="41.5229" y1="64.3022" x2="47.4545" y2="67.8028">
					<stop  offset="0" style="stop-color:#5FA545"/>
					<stop  offset="0.999" style="stop-color:#70A942"/>
				</linearGradient>
				<polygon class="st4" points="41.5,65.4 46.5,68.3 48.4,67.2 43.4,64.3 				"/>
				<linearGradient id="SVGID_6_" gradientUnits="userSpaceOnUse" x1="11.1815" y1="11.7193" x2="16.724" y2="15.1225">
					<stop  offset="0" style="stop-color:#008BB2"/>
					<stop  offset="0.999" style="stop-color:#008DA7"/>
				</linearGradient>
				<polygon class="st5" points="10.9,12.8 15.9,15.7 17.8,14.6 12.8,11.7 				"/>
			</g>
			<linearGradient id="SVGID_7_" gradientUnits="userSpaceOnUse" x1="63.3789" y1="39.9302" x2="64.3449" y2="46.5956">
				<stop  offset="0" style="stop-color:#7BAB41"/>
				<stop  offset="0.999" style="stop-color:#75AB42"/>
			</linearGradient>
			<polygon class="st6" points="61.2,42.4 66.3,39.5 66.3,42.4 61.2,45.3 			"/>
		</g>
	</g>
	<g>
		<polygon class="st7" points="128.6,23.6 128.6,52.4 151.8,52.4 151.8,47.4 133.7,47.4 133.7,40.1 150.3,40.1 150.3,35.1 
			133.7,35.1 133.7,28.6 152.2,28.6 152.2,23.6 		"/>
		<polygon class="st7" points="163.3,23.6 163.3,52.4 186.5,52.4 186.5,47.4 168.4,47.4 168.4,40.1 184.9,40.1 184.9,35.1 
			168.4,35.1 168.4,28.6 186.9,28.6 186.9,23.6 		"/>
		<path class="st7" d="M219,23.6h-21v28.8h5.1v-9.7H219c1.5,0,2.7-1.2,2.7-2.7V26.3C221.7,24.8,220.5,23.6,219,23.6z M216.7,37.6
			h-13.6v-9h13.6V37.6z"/>
		<rect x="232.1" y="23.9" class="st7" width="5.1" height="28.5"/>
		<path class="st7" d="M268.9,23.9v21.5l-15.5-21.5h-6v28.5h5.1V29.5L267.9,51c0.7,0.9,1.7,1.4,2.8,1.4h3.2l0,0V23.9H268.9z"/>
		<path class="st7" d="M99,47.3l18.5-18.6v-5.1H94v5.1h17.7L96.1,44.3c-1.3,1.3-2.1,3.2-2.1,5.1v3h23.9v-5.1H99z"/>
	</g>
</g>
</svg>
